<?xml version="1.0" encoding="UTF-8" standalone="no"?>
<!-- Created with Inkscape (http://www.inkscape.org/) -->

<svg
   xmlns:dc="http://purl.org/dc/elements/1.1/"
   xmlns:cc="http://creativecommons.org/ns#"
   xmlns:rdf="http://www.w3.org/1999/02/22-rdf-syntax-ns#"
   xmlns:svg="http://www.w3.org/2000/svg"
   xmlns="http://www.w3.org/2000/svg"
   xmlns:xlink="http://www.w3.org/1999/xlink"
   xmlns:sodipodi="http://sodipodi.sourceforge.net/DTD/sodipodi-0.dtd"
   xmlns:inkscape="http://www.inkscape.org/namespaces/inkscape"
   width="210mm"
   height="297mm"
   viewBox="0 0 744.09448819 1052.3622047"
   id="svg2"
   version="1.1"
   inkscape:version="0.91 r13725"
   sodipodi:docname="art.svg">
  <defs
     id="defs4">
    <linearGradient
       inkscape:collect="always"
       id="linearGradient4175">
      <stop
         style="stop-color:#6affff;stop-opacity:1;"
         offset="0"
         id="stop4177" />
      <stop
         style="stop-color:#6a77ff;stop-opacity:0"
         offset="1"
         id="stop4179" />
    </linearGradient>
    <radialGradient
       inkscape:collect="always"
       xlink:href="#linearGradient4175"
       id="radialGradient4181"
       cx="312.46423"
       cy="701.95459"
       fx="312.46423"
       fy="701.95459"
       r="85.714287"
       gradientUnits="userSpaceOnUse"
       gradientTransform="matrix(1.4831545,0.0156251,-0.01562513,1.4831581,-140.00039,-344.03737)" />
  </defs>
  <sodipodi:namedview
     id="base"
     pagecolor="#ffffff"
     bordercolor="#666666"
     borderopacity="1.0"
     inkscape:pageopacity="0.0"
     inkscape:pageshadow="2"
     inkscape:zoom="1.979899"
     inkscape:cx="262.95058"
     inkscape:cy="385.88911"
     inkscape:document-units="px"
     inkscape:current-layer="layer1"
     showgrid="false"
     inkscape:window-width="1301"
     inkscape:window-height="744"
     inkscape:window-x="65"
     inkscape:window-y="24"
     inkscape:window-maximized="1" />
  <metadata
     id="metadata7">
    <rdf:RDF>
      <cc:Work
         rdf:about="">
        <dc:format>image/svg+xml</dc:format>
        <dc:type
           rdf:resource="http://purl.org/dc/dcmitype/StillImage" />
        <dc:title />
      </cc:Work>
    </rdf:RDF>
  </metadata>
  <g
     inkscape:label="Layer 1"
     inkscape:groupmode="layer"
     id="layer1">
    <rect
       style="opacity:0;fill:#ffff80;fill-opacity:1;stroke:none"
       id="rect4136"
       width="271.42856"
       height="188.57143"
       x="314.28571"
       y="109.50506" />
    <rect
       style="opacity:0.01400003;fill:#afe9dd;fill-opacity:1;stroke:none"
       id="rect4138"
       width="175.76654"
       height="175.76654"
       x="40.406101"
       y="354.3468"
       inkscape:export-filename="E:\macharia\Proj_X04\resources\orange_block.png"
       inkscape:export-xdpi="102.40857"
       inkscape:export-ydpi="102.40857" />
    <path
       style="opacity:1;fill:#c83737;fill-opacity:1;stroke:none"
       d="m 190.4506,457.8695 c 0,32.4271 -26.28735,58.71446 -58.71446,58.71446 -32.427106,0 -58.714465,-26.28736 -58.714465,-58.71446 0,-32.42711 2.854535,-56.13233 35.263335,-57.22107 26.75161,-0.8987 32.09746,12.23661 37.48566,12.24615 3.05614,0.006 15.47114,-8.26672 22.20391,-8.72849 22.1086,-1.51632 22.47602,33.34906 22.47602,53.70341 z"
       id="path4140"
       inkscape:connector-curvature="0"
       sodipodi:nodetypes="sssssss" />
    <path
       style="fill:#5fd35f;fill-rule:evenodd;stroke:#5fd35f;stroke-width:1.18621147px;stroke-linecap:butt;stroke-linejoin:miter;stroke-opacity:1"
       d="m 156.70317,362.46445 c 0,0 -8.89658,13.98035 -11.01481,22.45328 -2.11824,8.47294 1.27094,38.97553 1.27094,38.97553"
       id="path4143"
       inkscape:connector-curvature="0" />
    <path
       inkscape:connector-curvature="0"
       id="path4145"
       d="m 101.65761,384.49731 c 0,0 19.23102,-17.70586 27.59306,-15.18521 8.36204,2.52066 21.20845,20.73311 21.20845,20.73311"
       style="fill:#5fd35f;fill-rule:evenodd;stroke:#5fd35f;stroke-width:1.18621147px;stroke-linecap:butt;stroke-linejoin:miter;stroke-opacity:1"
       sodipodi:nodetypes="csc" />
    <rect
       y="30.203165"
       x="14.469255"
       height="175.76654"
       width="175.76654"
       id="rect4147"
       style="opacity:1;fill:#6f8a91;fill-opacity:1;stroke:#4e6167;stroke-opacity:1;stroke-width:4.9;stroke-miterlimit:4;stroke-dasharray:none"
       inkscape:export-filename="E:\macharia\Proj_X04\resources\empty_block.png"
       inkscape:export-xdpi="99.631088"
       inkscape:export-ydpi="99.631088" />
    <path
       style="opacity:1;fill:#ffdd55;fill-opacity:1;stroke:none;stroke-opacity:1"
       d="m 551.70473,181.4861 c -30.54686,7.59308 -52.00244,35.00631 -52.03422,66.48272 -2.2e-4,37.87445 30.70314,68.57781 68.57758,68.57759 20.7602,-0.0234 43.92697,-7.15928 53.39161,-25.63648 2.54378,-4.96605 -10.96515,2.07223 -16.54476,2.09485 -37.8739,-5.5e-4 -68.57641,-30.70368 -68.57618,-68.57758 0.0219,-15.62579 42.49642,-49.72971 15.18597,-42.9411 z"
       id="path4149"
       inkscape:connector-curvature="0"
       sodipodi:nodetypes="sccsccs" />
    <path
       style="fill:none;fill-rule:evenodd;stroke:#c8ab37;stroke-width:2.29272985;stroke-linecap:butt;stroke-linejoin:miter;stroke-miterlimit:4;stroke-dasharray:none;stroke-opacity:1"
       d="m 554.20627,186.82202 c 0,0 -23.76577,13.97141 -29.67384,27.50258 -5.90807,13.53117 -7.76748,36.17926 0.76765,52.99133 8.53514,16.81207 36.69118,29.21691 51.70438,33.49705 15.01319,4.28015 28.58821,-2.17126 28.58821,-2.17126"
       id="path4154"
       inkscape:connector-curvature="0"
       sodipodi:nodetypes="czzzc" />
    <path
       style="fill:#c8ab37;fill-opacity:1;fill-rule:evenodd;stroke:none;stroke-width:1px;stroke-linecap:butt;stroke-linejoin:miter;stroke-opacity:1"
       d="m 560.9236,181.82361 c -0.29739,-0.5832 -0.91739,-1.01296 -1.53798,-1.22134 -1.22961,-0.41287 -3.89017,0.0905 -3.89017,0.0905 l 4.56869,5.11151 c 0,0 0.80226,-1.20739 0.94993,-1.89985 0.14479,-0.67899 0.22491,-1.46231 -0.0905,-2.08079 z"
       id="path4156"
       inkscape:connector-curvature="0"
       sodipodi:nodetypes="ssccss" />
    <path
       style="fill:#c8ab37;fill-opacity:1;fill-rule:evenodd;stroke:none;stroke-width:1px;stroke-linecap:butt;stroke-linejoin:miter;stroke-opacity:1"
       d="m 622.09761,289.48173 c -0.54623,-0.8724 -2.1143,-0.46834 -3.11553,-0.24878 -0.67171,0.14729 -1.99031,0.54281 -1.99031,0.54281 l 2.895,4.07111 c 0,0 1.19462,-1.59023 1.60583,-2.44267 0.29445,-0.61038 0.96465,-1.34808 0.60501,-1.92247 z"
       id="path4158"
       inkscape:connector-curvature="0"
       sodipodi:nodetypes="ssccss" />
    <path
       sodipodi:nodetypes="sssaaas"
       inkscape:connector-curvature="0"
       id="path4160"
       d="m 389.43888,151.30043 c 0,27.3367 -22.16077,49.49747 -49.49747,49.49747 -27.3367,0 -49.49748,-22.16077 -49.49748,-49.49747 0,-27.3367 12.75745,-39.94672 29.72771,-48.23851 8.91271,-4.354814 19.67249,2.77835 29.58085,3.25268 6.90564,0.33059 14.95682,-4.07768 20.73865,-0.28722 13.68143,8.96928 18.94774,28.11393 18.94774,45.27305 z"
       style="opacity:1;fill:#ff8c06;fill-opacity:1;stroke:none" />
    <path
       inkscape:connector-curvature="0"
       id="path4162"
       d="m 340.42666,60.265453 c 0,0 7.5,11.78572 9.28571,18.928573 1.78572,7.14286 -1.07143,32.857154 -1.07143,32.857154"
       style="fill:#5fd35f;fill-rule:evenodd;stroke:#5fd35f;stroke-width:1px;stroke-linecap:butt;stroke-linejoin:miter;stroke-opacity:1" />
    <path
       sodipodi:nodetypes="csc"
       style="fill:#5fd35f;fill-rule:evenodd;stroke:#5fd35f;stroke-width:1px;stroke-linecap:butt;stroke-linejoin:miter;stroke-opacity:1"
       d="m 388.25974,83.661036 c 0,0 -16.21213,-14.926403 -23.2615,-12.801443 -7.04937,2.12497 -17.87915,17.478433 -17.87915,17.478433"
       id="path4164"
       inkscape:connector-curvature="0" />
    <ellipse
       style="opacity:1;fill:#c87137;fill-opacity:1;stroke:none;stroke-width:3.20000005;stroke-miterlimit:4;stroke-dasharray:none;stroke-opacity:1"
       id="path4170"
       cx="330.36255"
       cy="120.1441"
       rx="4.2857141"
       ry="5.1785712" />
    <ellipse
       style="opacity:1;fill:#c87137;fill-opacity:1;stroke:none;stroke-width:3.20000005;stroke-miterlimit:4;stroke-dasharray:none;stroke-opacity:1"
       id="path4172"
       cx="320.45184"
       cy="168.2691"
       rx="3.4821429"
       ry="4.375" />
    <ellipse
       style="opacity:1;fill:#c87137;fill-opacity:1;stroke:none;stroke-width:3.20000005;stroke-miterlimit:4;stroke-dasharray:none;stroke-opacity:1"
       id="path4174"
       cx="373.7554"
       cy="151.92981"
       rx="4.8214288"
       ry="6.25" />
    <ellipse
       style="opacity:1;fill:#c87137;fill-opacity:1;stroke:none;stroke-width:3.20000005;stroke-miterlimit:4;stroke-dasharray:none;stroke-opacity:1"
       id="path4176"
       cx="347.5054"
       cy="180.41193"
       rx="1.25"
       ry="3.6607144" />
    <ellipse
       style="opacity:1;fill:#c87137;fill-opacity:1;stroke:none;stroke-width:3.20000005;stroke-miterlimit:4;stroke-dasharray:none;stroke-opacity:1"
       id="path4178"
       cx="360.18399"
       cy="132.37625"
       rx="4.4642859"
       ry="2.2321429" />
    <ellipse
       style="opacity:1;fill:#c87137;fill-opacity:1;stroke:none;stroke-width:3.20000005;stroke-miterlimit:4;stroke-dasharray:none;stroke-opacity:1"
       id="path4180"
       cx="309.02325"
       cy="135.94766"
       rx="2.9464285"
       ry="4.1964288" />
    <ellipse
       style="opacity:1;fill:#c87137;fill-opacity:1;stroke:none;stroke-width:3.20000005;stroke-miterlimit:4;stroke-dasharray:none;stroke-opacity:1"
       id="path4182"
       cx="340.78778"
       cy="151.19272"
       rx="3.7880721"
       ry="5.0507627" />
    <path
       style="fill:none;fill-rule:evenodd;stroke:#2b8226;stroke-width:10.92007637;stroke-linecap:butt;stroke-linejoin:miter;stroke-miterlimit:4;stroke-dasharray:none;stroke-opacity:1"
       d="m 384.05601,357.63863 c 0,0 -17.79184,52.18941 13.04735,86.58696 30.8392,34.39758 48.63105,48.63105 48.63105,48.63105"
       id="path4153"
       inkscape:connector-curvature="0"
       sodipodi:nodetypes="csc" />
    <ellipse
       style="opacity:1;fill:#692444;fill-opacity:1;stroke:none;stroke-width:9.30000019;stroke-miterlimit:4;stroke-dasharray:none;stroke-opacity:1"
       id="path4155"
       cx="395.30585"
       cy="393.21912"
       rx="13.699835"
       ry="14.258164" />
    <ellipse
       ry="14.258164"
       rx="13.699835"
       cy="401.40274"
       cx="374.03528"
       id="ellipse4157"
       style="opacity:1;fill:#692444;fill-opacity:1;stroke:none;stroke-width:9.30000019;stroke-miterlimit:4;stroke-dasharray:none;stroke-opacity:1" />
    <ellipse
       style="opacity:1;fill:#692444;fill-opacity:1;stroke:none;stroke-width:9.30000019;stroke-miterlimit:4;stroke-dasharray:none;stroke-opacity:1"
       id="ellipse4159"
       cx="366.06747"
       cy="424.25775"
       rx="13.699835"
       ry="14.258164" />
    <ellipse
       ry="14.258164"
       rx="13.699835"
       cy="420.93271"
       cx="389.85425"
       id="ellipse4161"
       style="opacity:1;fill:#692444;fill-opacity:1;stroke:none;stroke-width:9.30000019;stroke-miterlimit:4;stroke-dasharray:none;stroke-opacity:1" />
    <ellipse
       style="opacity:1;fill:#692444;fill-opacity:1;stroke:none;stroke-width:9.30000019;stroke-miterlimit:4;stroke-dasharray:none;stroke-opacity:1"
       id="ellipse4163"
       cx="408.59378"
       cy="415.01953"
       rx="13.699835"
       ry="14.258164" />
    <ellipse
       ry="14.258164"
       rx="13.699835"
       cy="442.55069"
       cx="375.55139"
       id="ellipse4165"
       style="opacity:1;fill:#692444;fill-opacity:1;stroke:none;stroke-width:9.30000019;stroke-miterlimit:4;stroke-dasharray:none;stroke-opacity:1" />
    <ellipse
       style="opacity:1;fill:#692444;fill-opacity:1;stroke:none;stroke-width:9.30000019;stroke-miterlimit:4;stroke-dasharray:none;stroke-opacity:1"
       id="ellipse4167"
       cx="408.21042"
       cy="436.90424"
       rx="13.699835"
       ry="14.258164" />
    <ellipse
       ry="14.258164"
       rx="13.699835"
       cy="449.83853"
       cx="400.66455"
       id="ellipse4169"
       style="opacity:1;fill:#692444;fill-opacity:1;stroke:none;stroke-width:9.30000019;stroke-miterlimit:4;stroke-dasharray:none;stroke-opacity:1" />
    <ellipse
       style="opacity:1;fill:#692444;fill-opacity:1;stroke:none;stroke-width:9.30000019;stroke-miterlimit:4;stroke-dasharray:none;stroke-opacity:1"
       id="ellipse4171"
       cx="420.57281"
       cy="449.55331"
       rx="13.699835"
       ry="14.258164" />
    <ellipse
       ry="14.258164"
       rx="13.699835"
       cy="465.56445"
       cx="381.37411"
       id="ellipse4173"
       style="opacity:1;fill:#692444;fill-opacity:1;stroke:none;stroke-width:9.30000019;stroke-miterlimit:4;stroke-dasharray:none;stroke-opacity:1" />
    <ellipse
       style="opacity:1;fill:#692444;fill-opacity:1;stroke:none;stroke-width:9.30000019;stroke-miterlimit:4;stroke-dasharray:none;stroke-opacity:1"
       id="ellipse4175"
       cx="406.95493"
       cy="472.48386"
       rx="13.699835"
       ry="14.258164" />
    <ellipse
       style="opacity:1;fill:#692444;fill-opacity:1;stroke:none;stroke-width:9.30000019;stroke-miterlimit:4;stroke-dasharray:none;stroke-opacity:1"
       id="ellipse4179"
       cx="435.09152"
       cy="460.09171"
       rx="13.699835"
       ry="14.258164" />
    <ellipse
       ry="14.258164"
       rx="13.699835"
       cy="487.79041"
       cx="424.77765"
       id="ellipse4181"
       style="opacity:1;fill:#692444;fill-opacity:1;stroke:none;stroke-width:9.30000019;stroke-miterlimit:4;stroke-dasharray:none;stroke-opacity:1" />
    <ellipse
       style="opacity:1;fill:#692444;fill-opacity:1;stroke:none;stroke-width:9.30000019;stroke-miterlimit:4;stroke-dasharray:none;stroke-opacity:1"
       id="ellipse4183"
       cx="440.22812"
       cy="484.0249"
       rx="13.699835"
       ry="14.258164" />
    <ellipse
       ry="14.258164"
       rx="13.699835"
       cy="491.41452"
       cx="402.06293"
       id="ellipse4185"
       style="opacity:1;fill:#692444;fill-opacity:1;stroke:none;stroke-width:9.30000019;stroke-miterlimit:4;stroke-dasharray:none;stroke-opacity:1" />
    <rect
       inkscape:export-ydpi="99.631088"
       inkscape:export-xdpi="99.631088"
       inkscape:export-filename="/home/awsome-oner/Documents/SDL Projects/FruitMatch/resources/static_block.png"
       style="opacity:1;fill:#e0e6e7;fill-opacity:1;stroke:#4e6167;stroke-width:4.9;stroke-miterlimit:4;stroke-dasharray:none;stroke-opacity:1"
       id="rect4169"
       width="175.76654"
       height="175.76654"
       x="224.58098"
       y="614.07135" />
    <circle
       style="fill:url(#radialGradient4181);fill-opacity:1;stroke:none;stroke-opacity:1"
       id="path4173"
       cx="312.46423"
       cy="701.95459"
       r="85.714287" />
  </g>
</svg>
